<svg width="130" height="19" viewBox="0 0 130 19" fill="none" xmlns="http://www.w3.org/2000/svg">
<path d="M14.08 16.746C13.6107 17.0833 12.958 17.406 12.122 17.714C11.3007 18.022 10.3987 18.176 9.416 18.176C7.75867 18.176 6.30667 17.8167 5.06 17.098C3.828 16.3647 2.87467 15.3893 2.2 14.172C1.54 12.94 1.21 11.5907 1.21 10.124C1.21 8.52533 1.54 7.09533 2.2 5.834C2.87467 4.57267 3.806 3.59 4.994 2.886C6.19667 2.16733 7.56067 1.808 9.086 1.808C10.0247 1.808 10.89 1.93267 11.682 2.182C12.4887 2.43133 13.2 2.74667 13.816 3.128L12.804 5.526C11.616 4.69 10.406 4.272 9.174 4.272C8.23533 4.272 7.35533 4.52867 6.534 5.042C5.72733 5.54067 5.082 6.23 4.598 7.11C4.114 7.97533 3.872 8.92867 3.872 9.97C3.872 11.07 4.092 12.06 4.532 12.94C4.98667 13.8053 5.62467 14.4873 6.446 14.986C7.282 15.47 8.24267 15.712 9.328 15.712C10.1053 15.712 10.802 15.5947 11.418 15.36C12.0487 15.1253 12.5767 14.8247 13.002 14.458L14.08 16.746ZM19.4549 0.839999V18H16.9909V0.839999H19.4549ZM27.3226 16.13C28.012 16.13 28.7086 15.888 29.4126 15.404L30.5346 17.23C30.036 17.538 29.5006 17.7873 28.9286 17.978C28.3566 18.154 27.8066 18.242 27.2786 18.242C26.208 18.242 25.2766 18.0293 24.4846 17.604C23.7073 17.1787 23.106 16.592 22.6806 15.844C22.27 15.096 22.0646 14.238 22.0646 13.27C22.0646 12.3607 22.2993 11.5247 22.7686 10.762C23.238 9.99933 23.876 9.398 24.6826 8.958C25.4893 8.50333 26.3693 8.276 27.3226 8.276C28.584 8.276 29.6326 8.65 30.4686 9.398C31.3046 10.1313 31.862 11.1727 32.1406 12.522L24.9686 14.942C25.218 15.3233 25.548 15.6167 25.9586 15.822C26.3693 16.0273 26.824 16.13 27.3226 16.13ZM27.1246 10.212C26.3473 10.212 25.7093 10.4833 25.2106 11.026C24.7266 11.5687 24.4846 12.2727 24.4846 13.138C24.4846 13.2993 24.492 13.424 24.5066 13.512L29.3906 11.774C29.2 11.3193 28.9213 10.9453 28.5546 10.652C28.188 10.3587 27.7113 10.212 27.1246 10.212ZM44.3111 8.694V18H41.8471V16.658C41.5098 17.054 41.0551 17.4207 40.4831 17.758C39.9111 18.0807 39.2438 18.242 38.4811 18.242C37.5864 18.242 36.7871 18.0587 36.0831 17.692C35.3791 17.3107 34.8218 16.7533 34.4111 16.02C34.0004 15.2867 33.7951 14.3993 33.7951 13.358C33.7951 12.346 34.0078 11.4587 34.4331 10.696C34.8584 9.91867 35.4231 9.32467 36.1271 8.914C36.8458 8.48867 37.6304 8.276 38.4811 8.276C39.9918 8.276 41.1211 8.83333 41.8691 9.948L42.0451 8.694H44.3111ZM39.1631 16.218C39.8378 16.218 40.4024 16.0493 40.8571 15.712C41.3264 15.36 41.6564 14.8687 41.8471 14.238V12.214C41.6711 11.642 41.3264 11.18 40.8131 10.828C40.3144 10.476 39.7351 10.3 39.0751 10.3C38.2978 10.3 37.6378 10.5787 37.0951 11.136C36.5524 11.6787 36.2811 12.3753 36.2811 13.226C36.2811 13.7833 36.4131 14.2893 36.6771 14.744C36.9411 15.1987 37.2931 15.558 37.7331 15.822C38.1731 16.086 38.6498 16.218 39.1631 16.218ZM53.7855 8.298C54.6509 8.298 55.3695 8.562 55.9415 9.09C56.5282 9.60333 56.8289 10.2707 56.8435 11.092V18H54.3795V11.972C54.3502 11.488 54.2035 11.1067 53.9395 10.828C53.6902 10.5493 53.3089 10.4027 52.7955 10.388C52.0329 10.388 51.4022 10.718 50.9035 11.378C50.4195 12.0233 50.1775 12.852 50.1775 13.864V18H47.7135V8.694H49.9355L50.1115 10.344C50.4489 9.69867 50.9329 9.2 51.5635 8.848C52.2089 8.48133 52.9495 8.298 53.7855 8.298ZM76.1958 5.24C74.8171 4.52133 73.5925 4.162 72.5218 4.162C71.7298 4.162 71.0991 4.338 70.6298 4.69C70.1751 5.042 69.9478 5.526 69.9478 6.142C69.9478 6.74333 70.2338 7.24933 70.8058 7.66C71.3925 8.056 72.2065 8.452 73.2478 8.848C74.0398 9.12667 74.7145 9.44933 75.2718 9.816C75.8438 10.168 76.3131 10.652 76.6798 11.268C77.0465 11.884 77.2298 12.6613 77.2298 13.6C77.2298 14.4507 77.0171 15.2207 76.5918 15.91C76.1665 16.5993 75.5505 17.1493 74.7438 17.56C73.9371 17.9707 72.9838 18.176 71.8838 18.176C70.9158 18.176 69.9625 18.0293 69.0238 17.736C68.0851 17.428 67.2491 17.01 66.5158 16.482L67.6598 14.48C68.2025 14.8907 68.8405 15.2353 69.5738 15.514C70.3218 15.778 71.0111 15.91 71.6418 15.91C72.4191 15.91 73.1011 15.7267 73.6878 15.36C74.2745 14.9787 74.5678 14.3993 74.5678 13.622C74.5678 13.006 74.3185 12.4927 73.8198 12.082C73.3358 11.6713 72.6538 11.2973 71.7738 10.96C70.8645 10.6227 70.1091 10.2927 69.5078 9.97C68.9065 9.63267 68.3858 9.17067 67.9458 8.584C67.5205 7.98267 67.3078 7.23467 67.3078 6.34C67.3078 5.03467 67.7478 3.986 68.6278 3.194C69.5225 2.38733 70.6958 1.95467 72.1478 1.896C73.2038 1.896 74.1278 2.02067 74.9198 2.27C75.7265 2.50467 76.4745 2.842 77.1638 3.282L76.1958 5.24ZM83.4565 4.602V8.694H85.8765V10.63H83.4565V18H80.9925V10.63H79.3865V8.694H80.9925V4.602H83.4565ZM97.2515 8.694V18H95.0295L94.8755 16.328C94.5528 16.9587 94.0762 17.4647 93.4455 17.846C92.8148 18.2127 92.0962 18.396 91.2895 18.396C90.4388 18.396 89.7275 18.1393 89.1555 17.626C88.5982 17.098 88.3122 16.4233 88.2975 15.602V8.694H90.7615V14.722C90.8055 15.7487 91.3115 16.2693 92.2795 16.284C92.9982 16.284 93.5922 15.954 94.0615 15.294C94.5455 14.634 94.7875 13.8053 94.7875 12.808V8.694H97.2515ZM110.573 0.839999V18H108.109V16.746C107.082 17.7433 105.865 18.242 104.457 18.242C103.592 18.242 102.807 18.0367 102.103 17.626C101.414 17.2153 100.871 16.6287 100.475 15.866C100.079 15.1033 99.881 14.216 99.881 13.204C99.881 12.192 100.086 11.312 100.497 10.564C100.922 9.816 101.502 9.25133 102.235 8.87C102.983 8.474 103.826 8.276 104.765 8.276C105.44 8.276 106.078 8.408 106.679 8.672C107.28 8.92133 107.764 9.266 108.131 9.706V0.839999H110.573ZM105.249 16.152C105.953 16.152 106.554 15.976 107.053 15.624C107.552 15.272 107.904 14.7807 108.109 14.15V12.17C107.933 11.598 107.581 11.1287 107.053 10.762C106.54 10.3953 105.938 10.212 105.249 10.212C104.736 10.212 104.259 10.344 103.819 10.608C103.379 10.8573 103.027 11.2093 102.763 11.664C102.499 12.104 102.367 12.6027 102.367 13.16C102.367 13.7173 102.499 14.2233 102.763 14.678C103.027 15.1327 103.379 15.492 103.819 15.756C104.259 16.02 104.736 16.152 105.249 16.152ZM116.435 8.694V18H113.971V8.694H116.435ZM113.861 5.372C113.861 5.00533 114.008 4.69733 114.301 4.448C114.595 4.184 114.925 4.052 115.291 4.052C115.643 4.052 115.959 4.184 116.237 4.448C116.531 4.69733 116.677 5.00533 116.677 5.372C116.677 5.73867 116.531 6.04667 116.237 6.296C115.959 6.54533 115.643 6.67 115.291 6.67C114.925 6.67 114.595 6.54533 114.301 6.296C114.008 6.04667 113.861 5.73867 113.861 5.372Z" fill="#3F69FF"/>
<circle cx="125" cy="13" r="5" fill="#3F69FF"/>
</svg>
